<svg xmlns="http://www.w3.org/2000/svg" viewBox="0 0 512 512" fill="#14b8a6">
  <path d="M208 0c-13.3 0-24 10.7-24 24V40.6C170.7 44.2 160 57.1 160 72c0 2.7.2 5.4.7 8.1C144.2 86.7 128 104.2 128 128c0 2.7.2 5.4.7 8.1C112.2 142.7 96 160.2 96 184c0 2.7.2 5.4.7 8.1C80.2 198.7 64 216.2 64 240c0 23.8 16.2 41.3 32.7 47.9C96.2 290.6 96 293.3 96 296c0 23.8 16.2 41.3 32.7 47.9C128.2 338.6 128 341.3 128 344c0 23.8 16.2 41.3 32.7 47.9C160.2 386.6 160 389.3 160 392c0 23.8 16.2 41.3 32.7 47.9C192.2 442.6 192 445.3 192 448c0 13.3 10.7 24 24 24h16V0H208zm80 0v472h16c13.3 0 24-10.7 24-24 0-2.7-.2-5.4-.7-8.1C367.8 425.3 384 407.8 384 384c0-2.7-.2-5.4-.7-8.1C399.8 369.3 416 351.8 416 328c0-2.7-.2-5.4-.7-8.1C431.8 313.3 448 295.8 448 272c0-23.8-16.2-41.3-32.7-47.9.5-2.7.7-5.4.7-8.1 0-23.8-16.2-41.3-32.7-47.9.5-2.7.7-5.4.7-8.1 0-23.8-16.2-41.3-32.7-47.9.5-2.7.7-5.4.7-8.1 0-23.8-16.2-41.3-32.7-47.9.5-2.7.7-5.4.7-8.1 0-14.9-10.7-27.8-24-31.4V24c0-13.3-10.7-24-24-24h-16z"/>
</svg> 